<?xml version="1.0" standalone="no"?>
<!DOCTYPE svg PUBLIC "-//W3C//DTD SVG 20010904//EN"
 "http://www.w3.org/TR/2001/REC-SVG-20010904/DTD/svg10.dtd">
<svg version="1.0" xmlns="http://www.w3.org/2000/svg"
 width="205.000000pt" height="205.000000pt" viewBox="0 0 205.000000 205.000000"
 preserveAspectRatio="xMidYMid meet">
<metadata>
Created by potrace 1.14, written by Peter Selinger 2001-2017
</metadata>
<g transform="translate(0.000000,205.000000) scale(0.100000,-0.100000)"
fill="#000000" stroke="none">
<path d="M930 2009 c-453 -39 -823 -370 -910 -813 -15 -76 -15 -256 0 -332
101 -511 567 -857 1096 -813 352 29 670 241 824 549 72 145 102 270 102 430 0
160 -30 285 -102 430 -147 294 -465 515 -785 545 -117 11 -141 12 -225 4z
m-120 -220 c21 -12 44 -32 50 -45 7 -13 18 -21 23 -17 6 4 7 1 2 -7 -5 -8 1
-19 16 -32 14 -11 17 -16 7 -12 -15 5 -16 2 -7 -28 6 -18 10 -108 9 -199 -1
-116 3 -175 12 -194 10 -22 10 -29 0 -33 -9 -3 -12 -38 -12 -128 l0 -124 110
0 110 0 0 126 c0 120 -1 126 -20 121 -18 -5 -18 -3 -4 19 9 13 12 29 8 35 -4
8 -3 9 4 5 9 -5 12 39 12 173 0 156 3 187 20 234 20 53 54 94 97 116 34 18
110 13 153 -9 37 -19 90 -84 90 -110 0 -6 3 -9 8 -7 4 3 7 -83 6 -191 -1 -141
3 -206 12 -229 7 -19 9 -33 3 -33 -5 0 -9 -53 -9 -125 l0 -126 158 3 c151 3
159 2 154 -16 -3 -10 -13 -21 -23 -23 -12 -4 -19 -16 -21 -41 -3 -37 -28 -59
-28 -25 0 26 -10 35 -26 22 -8 -7 -14 -7 -19 1 -9 15 -25 2 -25 -21 0 -36 -25
-14 -28 24 l-3 37 -70 0 -69 0 1 -167 c1 -236 10 -352 29 -363 8 -5 32 -12 52
-15 81 -14 32 -25 -112 -25 -148 0 -196 12 -104 26 30 4 49 13 58 28 10 15 16
90 20 269 l7 247 -140 0 -141 0 7 -103 c6 -98 4 -108 -26 -200 -18 -53 -29
-102 -25 -108 4 -7 3 -9 -3 -6 -5 3 -28 -47 -52 -116 -67 -194 -56 -190 -108
-42 -25 72 -50 144 -56 162 -5 18 -15 29 -20 26 -6 -3 -7 -1 -3 6 4 6 -5 49
-20 94 -27 82 -31 123 -18 235 l6 52 -142 0 -142 0 7 -247 c8 -279 10 -287 75
-298 83 -14 45 -24 -103 -27 -135 -3 -153 -1 -153 13 0 10 7 14 17 12 31 -8
89 17 93 40 3 12 7 131 10 265 l5 242 -49 0 c-38 0 -52 -4 -59 -19 -6 -10 -8
-21 -6 -25 3 -3 2 -4 -1 -1 -12 8 -45 -16 -38 -27 4 -6 3 -8 -4 -4 -6 3 -13 2
-17 -4 -8 -13 -52 -13 -60 0 -4 6 -11 8 -16 5 -5 -3 -6 1 -3 9 3 9 -2 17 -14
20 -30 10 -45 56 -32 91 14 36 68 84 95 84 11 0 35 -13 54 -29 19 -16 38 -27
41 -25 4 3 7 -3 6 -13 -1 -14 9 -18 52 -20 l52 -3 0 127 c0 108 -2 125 -15
120 -13 -5 -13 -3 -1 17 11 16 16 69 21 197 7 210 12 256 32 287 9 13 13 27 9
30 -8 8 34 54 45 48 4 -3 18 -1 31 4 42 17 118 12 158 -10z m305 -338 c3 -5 1
-12 -5 -16 -5 -3 -10 1 -10 9 0 18 6 21 15 7z"/>
<path d="M594 1768 l-19 -23 23 19 c21 18 27 26 19 26 -2 0 -12 -10 -23 -22z"/>
<path d="M661 1712 c-74 -37 -88 -81 -83 -259 3 -112 4 -114 22 -98 34 31 86
42 148 32 31 -5 65 -9 74 -10 9 -1 15 -3 13 -6 -6 -6 15 -31 26 -31 10 0 12
249 3 274 -3 9 -10 14 -14 11 -5 -3 -6 3 -3 13 4 16 -29 57 -46 57 -3 0 -5 4
-3 8 1 5 -2 6 -8 2 -6 -3 -17 1 -26 9 -20 21 -61 20 -103 -2z"/>
<path d="M1266 1715 c-77 -29 -96 -78 -96 -246 0 -79 4 -129 10 -129 6 0 10 4
10 9 0 5 13 14 30 21 16 7 27 17 24 22 -4 6 1 8 12 5 11 -4 51 -7 91 -9 39 -2
69 -6 67 -9 -2 -4 7 -14 20 -23 l24 -15 0 132 c0 72 -3 136 -6 142 -4 5 -7 16
-8 23 -5 29 -14 43 -25 36 -8 -4 -9 -3 -5 4 9 15 -34 42 -75 47 -19 3 -51 -2
-73 -10z m47 -12 c-7 -2 -21 -2 -30 0 -10 3 -4 5 12 5 17 0 24 -2 18 -5z"/>
<path d="M643 1350 c-34 -20 -59 -82 -47 -114 3 -9 1 -16 -5 -16 -7 0 -11 -40
-11 -125 l0 -125 139 0 138 0 7 38 c3 20 6 75 6 121 0 63 -3 82 -13 78 -9 -3
-11 6 -9 32 4 44 -13 95 -30 85 -6 -4 -8 -3 -4 4 3 6 -4 18 -16 26 -32 23
-115 21 -155 -4z"/>
<path d="M1247 1354 c-16 -8 -25 -20 -21 -26 4 -7 3 -8 -4 -4 -15 9 -32 -34
-32 -80 0 -19 -4 -34 -10 -34 -11 0 -13 -107 -4 -187 l7 -53 138 0 139 0 0
125 c0 77 -4 125 -10 125 -5 0 -10 20 -10 45 0 49 -20 78 -66 95 -37 14 -95
11 -127 -6z"/>
<path d="M301 1021 c-18 -32 -13 -41 24 -41 25 0 35 4 35 16 0 8 -4 13 -9 10
-5 -3 -8 2 -7 11 2 25 -31 28 -43 4z"/>
<path d="M257 983 c-11 -10 -8 -61 3 -68 6 -4 10 10 10 34 0 42 -2 46 -13 34z"/>
<path d="M380 949 c0 -24 4 -38 10 -34 6 3 10 22 10 41 0 19 -4 34 -10 34 -5
0 -10 -18 -10 -41z"/>
<path d="M310 950 c0 -5 7 -10 15 -10 8 0 15 5 15 10 0 6 -7 10 -15 10 -8 0
-15 -4 -15 -10z"/>
<path d="M912 819 c5 -88 9 -114 23 -127 11 -11 15 -12 10 -3 -6 10 -4 12 4 7
7 -5 10 -10 7 -13 -3 -3 3 -22 14 -43 21 -41 40 -140 40 -207 0 -75 16 -46 29
55 8 53 14 107 15 119 1 11 5 19 10 15 5 -3 6 2 3 12 -5 11 -3 15 5 10 8 -5 9
-2 5 9 -4 10 -2 16 6 14 7 -1 12 6 12 15 0 9 4 20 9 25 5 4 6 3 2 -4 -4 -7 -3
-13 2 -13 10 0 22 95 22 181 l0 59 -111 0 -112 0 5 -111z"/>
<path d="M290 909 c0 -20 21 -49 35 -49 14 0 35 29 35 49 0 6 -16 11 -35 11
-19 0 -35 -5 -35 -11z"/>
</g>
</svg>
